<svg width="70" height="24" viewBox="0 0 70 24" fill="none" xmlns="http://www.w3.org/2000/svg">
<rect x="0.5" y="0.5" width="69" height="23" rx="3.5" fill="#3CC13B"/>
<rect x="0.5" y="0.5" width="69" height="23" rx="3.5" fill="white" fill-opacity="0.9"/>
<path d="M14.4395 17L13.6016 14.6211H10.3262L9.48828 17H8.00586L11.1934 8.39844H12.752L15.9336 17H14.4395ZM13.2383 13.4141L12.4238 11.0703C12.3926 10.9688 12.3477 10.8262 12.2891 10.6426C12.2305 10.4551 12.1719 10.2656 12.1133 10.0742C12.0547 9.87891 12.0059 9.71484 11.9668 9.58203C11.9277 9.74219 11.8789 9.92188 11.8203 10.1211C11.7656 10.3164 11.7109 10.5 11.6562 10.6719C11.6055 10.8438 11.5664 10.9766 11.5391 11.0703L10.7188 13.4141H13.2383ZM19.5547 8.43359C20.6602 8.43359 21.4668 8.66016 21.9746 9.11328C22.4824 9.56641 22.7363 10.2012 22.7363 11.0176C22.7363 11.3887 22.6777 11.7422 22.5605 12.0781C22.4473 12.4102 22.2598 12.7051 21.998 12.9629C21.7363 13.2168 21.3906 13.418 20.9609 13.5664C20.5352 13.7148 20.0098 13.7891 19.3848 13.7891H18.4707V17H17.0645V8.43359H19.5547ZM19.4609 9.59961H18.4707V12.6172H19.2383C19.6797 12.6172 20.0547 12.5664 20.3633 12.4648C20.6719 12.3594 20.9062 12.1934 21.0664 11.9668C21.2266 11.7402 21.3066 11.4414 21.3066 11.0703C21.3066 10.5742 21.1562 10.2051 20.8555 9.96289C20.5586 9.7207 20.0938 9.59961 19.4609 9.59961ZM26.9375 8.43359C28.043 8.43359 28.8496 8.66016 29.3574 9.11328C29.8652 9.56641 30.1191 10.2012 30.1191 11.0176C30.1191 11.3887 30.0605 11.7422 29.9434 12.0781C29.8301 12.4102 29.6426 12.7051 29.3809 12.9629C29.1191 13.2168 28.7734 13.418 28.3438 13.5664C27.918 13.7148 27.3926 13.7891 26.7676 13.7891H25.8535V17H24.4473V8.43359H26.9375ZM26.8438 9.59961H25.8535V12.6172H26.6211C27.0625 12.6172 27.4375 12.5664 27.7461 12.4648C28.0547 12.3594 28.2891 12.1934 28.4492 11.9668C28.6094 11.7402 28.6895 11.4414 28.6895 11.0703C28.6895 10.5742 28.5391 10.2051 28.2383 9.96289C27.9414 9.7207 27.4766 9.59961 26.8438 9.59961ZM34.2383 8.43359C34.9766 8.43359 35.5859 8.52344 36.0664 8.70312C36.5508 8.88281 36.9102 9.15625 37.1445 9.52344C37.3828 9.89062 37.502 10.3574 37.502 10.9238C37.502 11.3457 37.4238 11.7051 37.2676 12.002C37.1113 12.2988 36.9062 12.5449 36.6523 12.7402C36.3984 12.9355 36.127 13.0918 35.8379 13.209L38.2695 17H36.6816L34.6133 13.5664H33.2363V17H31.8301V8.43359H34.2383ZM34.1445 9.60547H33.2363V12.4062H34.209C34.8613 12.4062 35.334 12.2852 35.627 12.043C35.9238 11.8008 36.0723 11.4434 36.0723 10.9707C36.0723 10.4746 35.9141 10.123 35.5977 9.91602C35.2852 9.70898 34.8008 9.60547 34.1445 9.60547ZM47.0996 12.7051C47.0996 13.3652 47.0156 13.9668 46.8477 14.5098C46.6836 15.0488 46.4355 15.5137 46.1035 15.9043C45.7715 16.291 45.3555 16.5898 44.8555 16.8008C44.3555 17.0117 43.7695 17.1172 43.0977 17.1172C42.4141 17.1172 41.8203 17.0117 41.3164 16.8008C40.8164 16.5898 40.4004 16.2891 40.0684 15.8984C39.7402 15.5078 39.4941 15.041 39.3301 14.498C39.166 13.9551 39.084 13.3535 39.084 12.6934C39.084 11.8105 39.2285 11.041 39.5176 10.3848C39.8105 9.72461 40.2539 9.21289 40.8477 8.84961C41.4453 8.48242 42.1992 8.29883 43.1094 8.29883C44 8.29883 44.7402 8.48047 45.3301 8.84375C45.9199 9.20703 46.3613 9.71875 46.6543 10.3789C46.9512 11.0352 47.0996 11.8105 47.0996 12.7051ZM40.5605 12.7051C40.5605 13.3652 40.6504 13.9375 40.8301 14.4219C41.0098 14.9023 41.2852 15.2734 41.6562 15.5352C42.0312 15.793 42.5117 15.9219 43.0977 15.9219C43.6875 15.9219 44.168 15.793 44.5391 15.5352C44.9102 15.2734 45.1836 14.9023 45.3594 14.4219C45.5352 13.9375 45.623 13.3652 45.623 12.7051C45.623 11.7012 45.4219 10.916 45.0195 10.3496C44.6211 9.7793 43.9844 9.49414 43.1094 9.49414C42.5234 9.49414 42.041 9.62305 41.6621 9.88086C41.2871 10.1387 41.0098 10.5078 40.8301 10.9883C40.6504 11.4648 40.5605 12.0371 40.5605 12.7051ZM55.291 8.43359L52.2969 17H50.8086L47.8145 8.43359H49.2559L51.0605 13.8008C51.1152 13.957 51.1738 14.1465 51.2363 14.3691C51.3027 14.5918 51.3633 14.8164 51.418 15.043C51.4766 15.2695 51.5215 15.4707 51.5527 15.6465C51.584 15.4707 51.627 15.2695 51.6816 15.043C51.7402 14.8164 51.8008 14.5918 51.8633 14.3691C51.9258 14.1465 51.9844 13.9551 52.0391 13.7949L53.8496 8.43359H55.291ZM61.2676 17H56.416V8.43359H61.2676V9.61719H57.8223V11.9434H61.0508V13.1211H57.8223V15.8105H61.2676V17Z" fill="#3CC13B"/>
<rect x="0.5" y="0.5" width="69" height="23" rx="3.5" stroke="#3CC13B"/>
<rect x="0.5" y="0.5" width="69" height="23" rx="3.5" stroke="white" stroke-opacity="0.5"/>
</svg>
