<svg width="28" height="26" viewBox="0 0 28 26" fill="none" xmlns="http://www.w3.org/2000/svg">
<path d="M23.1777 5.67188H19.1777V4.32787C19.1777 3.60254 18.9964 2.93587 18.6337 2.32787C18.2711 1.71987 17.7857 1.23454 17.1777 0.871874C16.5697 0.509207 15.9031 0.327873 15.1777 0.327873H12.4897C11.7644 0.327873 11.0977 0.509207 10.4897 0.871874C9.88175 1.23454 9.39641 1.71987 9.03375 2.32787C8.67108 2.93587 8.48975 3.60254 8.48975 4.32787V5.67188H4.48975C3.76441 5.67188 3.09775 5.85321 2.48975 6.21587C1.88175 6.57854 1.39641 7.06387 1.03375 7.67188C0.671079 8.27987 0.489746 8.94654 0.489746 9.67188V21.6719C0.489746 22.3972 0.671079 23.0639 1.03375 23.6719C1.39641 24.2799 1.88175 24.7652 2.48975 25.1279C3.09775 25.4905 3.76441 25.6719 4.48975 25.6719H23.1777C23.9031 25.6719 24.5697 25.4905 25.1777 25.1279C25.7857 24.7652 26.2711 24.2799 26.6337 23.6719C26.9964 23.0639 27.1777 22.3972 27.1777 21.6719V9.67188C27.1777 8.94654 26.9964 8.27987 26.6337 7.67188C26.2711 7.06387 25.7857 6.57854 25.1777 6.21587C24.5697 5.85321 23.9031 5.67188 23.1777 5.67188ZM11.1777 4.32787C11.1777 3.96521 11.3057 3.65054 11.5617 3.38387C11.8177 3.11721 12.1271 2.98387 12.4897 2.98387H15.1777C15.5404 2.98387 15.8497 3.11721 16.1057 3.38387C16.3617 3.65054 16.4897 3.96521 16.4897 4.32787V5.67188H11.1777V4.32787ZM24.4897 21.6719C24.4897 22.0345 24.3617 22.3439 24.1057 22.5999C23.8497 22.8559 23.5404 22.9839 23.1777 22.9839H4.48975C4.12708 22.9839 3.81775 22.8559 3.56175 22.5999C3.30575 22.3439 3.17775 22.0345 3.17775 21.6719V14.3439C4.47908 14.8559 5.81241 15.2719 7.17775 15.5919V16.3599C7.22041 16.6799 7.36975 16.9519 7.62575 17.1759C7.88175 17.3999 8.17508 17.5119 8.50575 17.5119C8.83641 17.5119 9.12975 17.3999 9.38575 17.1759C9.64175 16.9519 9.79108 16.6799 9.83375 16.3599V16.1039C11.1564 16.2745 12.4897 16.3599 13.8337 16.3599C15.1777 16.3599 16.5111 16.2745 17.8337 16.1039V16.3599C17.8764 16.6799 18.0257 16.9519 18.2817 17.1759C18.5377 17.3999 18.8311 17.5119 19.1617 17.5119C19.4924 17.5119 19.7857 17.3999 20.0417 17.1759C20.2977 16.9519 20.4471 16.6799 20.4897 16.3599V15.5919C21.8551 15.2719 23.1884 14.8559 24.4897 14.3439V21.6719ZM24.4897 11.3999C23.1884 11.9545 21.8551 12.4025 20.4897 12.7439V12.3279C20.4471 12.0079 20.2977 11.7359 20.0417 11.5119C19.7857 11.2879 19.4924 11.1759 19.1617 11.1759C18.8311 11.1759 18.5377 11.2879 18.2817 11.5119C18.0257 11.7359 17.8764 12.0079 17.8337 12.3279V13.3199C15.1671 13.7252 12.5004 13.7252 9.83375 13.3199V12.3279C9.79108 12.0079 9.64175 11.7359 9.38575 11.5119C9.12975 11.2879 8.83641 11.1759 8.50575 11.1759C8.17508 11.1759 7.88175 11.2879 7.62575 11.5119C7.36975 11.7359 7.22041 12.0079 7.17775 12.3279V12.7759C5.81241 12.4345 4.47908 11.9865 3.17775 11.4319V9.67188C3.17775 9.30921 3.30575 8.99454 3.56175 8.72787C3.81775 8.46121 4.12708 8.32787 4.48975 8.32787H23.1777C23.5404 8.32787 23.8497 8.46121 24.1057 8.72787C24.3617 8.99454 24.4897 9.30921 24.4897 9.67188V11.3999Z" fill="#8231D3"/>
</svg>
