<svg width="14" height="15" viewBox="0 0 14 15" fill="none" xmlns="http://www.w3.org/2000/svg">
<path d="M5.256 8.256H0.756C0.552 8.256 0.375 8.328 0.225 8.472C0.075 8.616 0 8.79 0 8.994V13.494C0 13.698 0.075 13.875 0.225 14.025C0.375 14.175 0.552 14.25 0.756 14.25H5.256C5.46 14.25 5.634 14.175 5.778 14.025C5.922 13.875 5.994 13.698 5.994 13.494V8.994C5.994 8.79 5.922 8.616 5.778 8.472C5.634 8.328 5.46 8.256 5.256 8.256ZM4.5 12.756H1.494V9.75H4.5V12.756ZM12.744 0.750001H8.244C8.04 0.750001 7.866 0.825001 7.722 0.975C7.578 1.125 7.506 1.302 7.506 1.506V6.006C7.506 6.21 7.578 6.384 7.722 6.528C7.866 6.672 8.04 6.744 8.244 6.744H12.744C12.948 6.744 13.125 6.672 13.275 6.528C13.425 6.384 13.5 6.21 13.5 6.006V1.506C13.5 1.302 13.425 1.125 13.275 0.975C13.125 0.825001 12.948 0.750001 12.744 0.750001ZM12.006 5.25H9V2.244H12.006V5.25ZM12.744 10.506H11.25V8.994C11.226 8.814 11.142 8.661 10.998 8.535C10.854 8.409 10.689 8.346 10.503 8.346C10.317 8.346 10.152 8.409 10.008 8.535C9.864 8.661 9.78 8.814 9.756 8.994V10.506H8.244C8.064 10.53 7.911 10.614 7.785 10.758C7.659 10.902 7.596 11.067 7.596 11.253C7.596 11.439 7.659 11.604 7.785 11.748C7.911 11.892 8.064 11.976 8.244 12H9.756V13.494C9.78 13.674 9.864 13.827 10.008 13.953C10.152 14.079 10.317 14.142 10.503 14.142C10.689 14.142 10.854 14.079 10.998 13.953C11.142 13.827 11.226 13.674 11.25 13.494V12H12.744C12.924 11.976 13.077 11.892 13.203 11.748C13.329 11.604 13.392 11.439 13.392 11.253C13.392 11.067 13.329 10.902 13.203 10.758C13.077 10.614 12.924 10.53 12.744 10.506ZM5.256 0.750001H0.756C0.552 0.750001 0.375 0.825001 0.225 0.975C0.075 1.125 0 1.302 0 1.506V6.006C0 6.21 0.075 6.384 0.225 6.528C0.375 6.672 0.552 6.744 0.756 6.744H5.256C5.46 6.744 5.634 6.672 5.778 6.528C5.922 6.384 5.994 6.21 5.994 6.006V1.506C5.994 1.302 5.922 1.125 5.778 0.975C5.634 0.825001 5.46 0.750001 5.256 0.750001ZM4.5 5.25H1.494V2.244H4.5V5.25Z" fill="#506B8E"/>
</svg>
