<svg width="30" height="30" viewBox="0 0 30 30" fill="none" xmlns="http://www.w3.org/2000/svg">
<path d="M13.8022 11.0002H19.1462C19.4662 10.9576 19.7382 10.8082 19.9622 10.5522C20.1862 10.2962 20.2982 10.0029 20.2982 9.67225C20.2982 9.34158 20.1862 9.04825 19.9622 8.79225C19.7382 8.53625 19.4662 8.38692 19.1462 8.34425H16.4902V7.00025C16.4902 6.63758 16.3569 6.32292 16.0902 6.05625C15.8236 5.78958 15.5089 5.65625 15.1462 5.65625C14.7836 5.65625 14.4689 5.78958 14.2022 6.05625C13.9356 6.32292 13.8022 6.63758 13.8022 7.00025V8.34425C13.0769 8.34425 12.4102 8.52558 11.8022 8.88825C11.1942 9.25092 10.7089 9.73625 10.3462 10.3442C9.98357 10.9522 9.80223 11.6189 9.80223 12.3442C9.80223 13.0696 9.98357 13.7362 10.3462 14.3442C10.7089 14.9522 11.1942 15.4376 11.8022 15.8002C12.4102 16.1629 13.0769 16.3442 13.8022 16.3442H16.4902C16.8102 16.3869 17.0822 16.5362 17.3062 16.7922C17.5302 17.0482 17.6422 17.3416 17.6422 17.6722C17.6422 18.0029 17.5302 18.2962 17.3062 18.5522C17.0822 18.8082 16.8102 18.9576 16.4902 19.0002H11.1462C10.8262 19.0429 10.5542 19.1922 10.3302 19.4482C10.1062 19.7042 9.99424 19.9976 9.99424 20.3282C9.99424 20.6589 10.1062 20.9522 10.3302 21.2083C10.5542 21.4642 10.8262 21.6136 11.1462 21.6562H13.8022V23.0002C13.8022 23.3629 13.9356 23.6776 14.2022 23.9442C14.4689 24.2109 14.7836 24.3442 15.1462 24.3442C15.5089 24.3442 15.8236 24.2109 16.0902 23.9442C16.3569 23.6776 16.4902 23.3629 16.4902 23.0002V21.6562C17.2156 21.6562 17.8822 21.4749 18.4902 21.1122C19.0982 20.7496 19.5836 20.2642 19.9462 19.6562C20.3089 19.0482 20.4902 18.3816 20.4902 17.6562C20.4902 16.9309 20.3089 16.2642 19.9462 15.6562C19.5836 15.0482 19.0982 14.5629 18.4902 14.2002C17.8822 13.8376 17.2156 13.6562 16.4902 13.6562H13.8022C13.4822 13.6136 13.2102 13.4642 12.9862 13.2083C12.7622 12.9522 12.6502 12.6589 12.6502 12.3282C12.6502 11.9976 12.7622 11.7042 12.9862 11.4482C13.2102 11.1922 13.4822 11.0429 13.8022 11.0002ZM15.1462 0.344248C12.5009 0.344248 10.0369 1.01625 7.75423 2.36025C5.53557 3.64025 3.78623 5.38958 2.50623 7.60825C1.16223 9.89091 0.490234 12.3549 0.490234 15.0002C0.490234 17.6456 1.16223 20.1096 2.50623 22.3922C3.78623 24.6109 5.53557 26.3602 7.75423 27.6402C10.0369 28.9842 12.5009 29.6562 15.1462 29.6562C17.7916 29.6562 20.2556 28.9842 22.5382 27.6402C24.7569 26.3602 26.5062 24.6109 27.7862 22.3922C29.1302 20.1096 29.8022 17.6456 29.8022 15.0002C29.8022 12.3549 29.1302 9.89091 27.7862 7.60825C26.5062 5.38958 24.7569 3.64025 22.5382 2.36025C20.2556 1.01625 17.7916 0.344248 15.1462 0.344248ZM15.1462 27.0002C12.9702 27.0002 10.9542 26.4562 9.09824 25.3682C7.2849 24.3016 5.8449 22.8616 4.77823 21.0482C3.69023 19.1922 3.14623 17.1762 3.14623 15.0002C3.14623 12.8242 3.69023 10.8082 4.77823 8.95225C5.8449 7.13892 7.2849 5.69892 9.09824 4.63225C10.9542 3.54425 12.9702 3.00025 15.1462 3.00025C17.3222 3.00025 19.3382 3.54425 21.1942 4.63225C23.0076 5.69892 24.4476 7.13892 25.5142 8.95225C26.6022 10.8082 27.1462 12.8242 27.1462 15.0002C27.1462 17.1762 26.6022 19.1922 25.5142 21.0482C24.4476 22.8616 23.0076 24.3016 21.1942 25.3682C19.3382 26.4562 17.3222 27.0002 15.1462 27.0002Z" fill="#5840FF"/>
</svg>
