<svg width="91" height="24" viewBox="0 0 91 24" fill="none" xmlns="http://www.w3.org/2000/svg">
<rect x="0.5" y="0.5" width="90" height="23" rx="3.5" fill="#C2C9D1"/>
<rect x="0.5" y="0.5" width="90" height="23" rx="3.5" fill="white" fill-opacity="0.9"/>
<path d="M16.2539 12.6348C16.2539 13.5996 16.0742 14.4062 15.7148 15.0547C15.3555 15.6992 14.834 16.1855 14.1504 16.5137C13.4668 16.8379 12.6426 17 11.6777 17H9.29883V8.43359H11.9355C12.8223 8.43359 13.5879 8.59375 14.2324 8.91406C14.877 9.23047 15.375 9.70117 15.7266 10.3262C16.0781 10.9473 16.2539 11.7168 16.2539 12.6348ZM14.7891 12.6758C14.7891 11.9727 14.6777 11.3945 14.4551 10.9414C14.2363 10.4883 13.9121 10.1523 13.4824 9.93359C13.0566 9.71094 12.5312 9.59961 11.9062 9.59961H10.7051V15.8223H11.7012C12.7363 15.8223 13.5098 15.5586 14.0215 15.0312C14.5332 14.5039 14.7891 13.7188 14.7891 12.6758ZM23.7012 13.7422C23.7012 14.2812 23.6309 14.7598 23.4902 15.1777C23.3496 15.5957 23.1445 15.9492 22.875 16.2383C22.6055 16.5234 22.2812 16.7422 21.9023 16.8945C21.5234 17.043 21.0957 17.1172 20.6191 17.1172C20.1738 17.1172 19.7656 17.043 19.3945 16.8945C19.0234 16.7422 18.7012 16.5234 18.4277 16.2383C18.1582 15.9492 17.9492 15.5957 17.8008 15.1777C17.6523 14.7598 17.5781 14.2812 17.5781 13.7422C17.5781 13.0273 17.7012 12.4219 17.9473 11.9258C18.1973 11.4258 18.5527 11.0449 19.0137 10.7832C19.4746 10.5215 20.0234 10.3906 20.6602 10.3906C21.2578 10.3906 21.7852 10.5215 22.2422 10.7832C22.6992 11.0449 23.0566 11.4258 23.3145 11.9258C23.5723 12.4258 23.7012 13.0312 23.7012 13.7422ZM18.9961 13.7422C18.9961 14.2148 19.0527 14.6191 19.166 14.9551C19.2832 15.291 19.4629 15.5488 19.7051 15.7285C19.9473 15.9043 20.2598 15.9922 20.6426 15.9922C21.0254 15.9922 21.3379 15.9043 21.5801 15.7285C21.8223 15.5488 22 15.291 22.1133 14.9551C22.2266 14.6191 22.2832 14.2148 22.2832 13.7422C22.2832 13.2695 22.2266 12.8691 22.1133 12.541C22 12.209 21.8223 11.957 21.5801 11.7852C21.3379 11.6094 21.0234 11.5215 20.6367 11.5215C20.0664 11.5215 19.6504 11.7129 19.3887 12.0957C19.127 12.4785 18.9961 13.0273 18.9961 13.7422ZM30.5859 16.9941L29.7656 13.9766C29.7266 13.8281 29.6797 13.6484 29.625 13.4375C29.5703 13.2266 29.5156 13.0098 29.4609 12.7871C29.4062 12.5605 29.3555 12.3516 29.3086 12.1602C29.2656 11.9688 29.2324 11.8203 29.209 11.7148H29.1621C29.1426 11.8203 29.1113 11.9688 29.0684 12.1602C29.0254 12.3516 28.9766 12.5605 28.9219 12.7871C28.8672 13.0137 28.8125 13.2344 28.7578 13.4492C28.707 13.6641 28.6602 13.8477 28.6172 14L27.7559 16.9941H26.2441L24.4277 10.5078H25.8223L26.666 13.7305C26.7207 13.9492 26.7734 14.1855 26.8242 14.4395C26.8789 14.6934 26.9258 14.9355 26.9648 15.166C27.0039 15.3965 27.0332 15.5859 27.0527 15.7344H27.0996C27.1152 15.6289 27.1367 15.4961 27.1641 15.3359C27.1914 15.1719 27.2227 15.002 27.2578 14.8262C27.293 14.6465 27.3281 14.4785 27.3633 14.3223C27.3984 14.1621 27.4316 14.0332 27.4629 13.9355L28.459 10.5078H29.9648L30.9199 13.9355C30.9629 14.084 31.0098 14.2715 31.0605 14.498C31.1113 14.7207 31.1562 14.9453 31.1953 15.1719C31.2383 15.3945 31.2656 15.5801 31.2773 15.7285H31.3242C31.3398 15.5957 31.3672 15.416 31.4062 15.1895C31.4492 14.959 31.498 14.7148 31.5527 14.457C31.6074 14.1953 31.6641 13.9531 31.7227 13.7305L32.584 10.5078H33.9551L32.127 16.9941H30.5859ZM38.4492 10.3906C39.1797 10.3906 39.748 10.5801 40.1543 10.959C40.5645 11.334 40.7695 11.9375 40.7695 12.7695V17H39.3926V13.0273C39.3926 12.5234 39.2891 12.1465 39.082 11.8965C38.875 11.6426 38.5547 11.5156 38.1211 11.5156C37.4922 11.5156 37.0547 11.709 36.8086 12.0957C36.5664 12.4824 36.4453 13.043 36.4453 13.7773V17H35.0684V10.5137H36.1406L36.334 11.3926H36.4102C36.5508 11.166 36.7246 10.9805 36.9316 10.8359C37.1426 10.6875 37.377 10.5762 37.6348 10.502C37.8965 10.4277 38.168 10.3906 38.4492 10.3906ZM44.0801 17H42.6973V7.88281H44.0801V17ZM51.791 13.7422C51.791 14.2812 51.7207 14.7598 51.5801 15.1777C51.4395 15.5957 51.2344 15.9492 50.9648 16.2383C50.6953 16.5234 50.3711 16.7422 49.9922 16.8945C49.6133 17.043 49.1855 17.1172 48.709 17.1172C48.2637 17.1172 47.8555 17.043 47.4844 16.8945C47.1133 16.7422 46.791 16.5234 46.5176 16.2383C46.248 15.9492 46.0391 15.5957 45.8906 15.1777C45.7422 14.7598 45.668 14.2812 45.668 13.7422C45.668 13.0273 45.791 12.4219 46.0371 11.9258C46.2871 11.4258 46.6426 11.0449 47.1035 10.7832C47.5645 10.5215 48.1133 10.3906 48.75 10.3906C49.3477 10.3906 49.875 10.5215 50.332 10.7832C50.7891 11.0449 51.1465 11.4258 51.4043 11.9258C51.6621 12.4258 51.791 13.0312 51.791 13.7422ZM47.0859 13.7422C47.0859 14.2148 47.1426 14.6191 47.2559 14.9551C47.373 15.291 47.5527 15.5488 47.7949 15.7285C48.0371 15.9043 48.3496 15.9922 48.7324 15.9922C49.1152 15.9922 49.4277 15.9043 49.6699 15.7285C49.9121 15.5488 50.0898 15.291 50.2031 14.9551C50.3164 14.6191 50.373 14.2148 50.373 13.7422C50.373 13.2695 50.3164 12.8691 50.2031 12.541C50.0898 12.209 49.9121 11.957 49.6699 11.7852C49.4277 11.6094 49.1133 11.5215 48.7266 11.5215C48.1562 11.5215 47.7402 11.7129 47.4785 12.0957C47.2168 12.4785 47.0859 13.0273 47.0859 13.7422ZM55.916 10.3906C56.7363 10.3906 57.3555 10.5723 57.7734 10.9355C58.1953 11.2988 58.4062 11.8652 58.4062 12.6348V17H57.4277L57.1641 16.0801H57.1172C56.9336 16.3145 56.7441 16.5078 56.5488 16.6602C56.3535 16.8125 56.127 16.9258 55.8691 17C55.6152 17.0781 55.3047 17.1172 54.9375 17.1172C54.5508 17.1172 54.2051 17.0469 53.9004 16.9062C53.5957 16.7617 53.3555 16.543 53.1797 16.25C53.0039 15.957 52.916 15.5859 52.916 15.1367C52.916 14.4688 53.1641 13.9668 53.6602 13.6309C54.1602 13.2949 54.9141 13.1094 55.9219 13.0742L57.0469 13.0332V12.6934C57.0469 12.2441 56.9414 11.9238 56.7305 11.7324C56.5234 11.541 56.2305 11.4453 55.8516 11.4453C55.5273 11.4453 55.2129 11.4922 54.9082 11.5859C54.6035 11.6797 54.3066 11.7949 54.0176 11.9316L53.5723 10.959C53.8887 10.791 54.248 10.6543 54.6504 10.5488C55.0566 10.4434 55.4785 10.3906 55.916 10.3906ZM57.041 13.9004L56.2031 13.9297C55.5156 13.9531 55.0332 14.0703 54.7559 14.2812C54.4785 14.4922 54.3398 14.7812 54.3398 15.1484C54.3398 15.4688 54.4355 15.7031 54.627 15.8516C54.8184 15.9961 55.0703 16.0684 55.3828 16.0684C55.8594 16.0684 56.2539 15.9336 56.5664 15.6641C56.8828 15.3906 57.041 14.9902 57.041 14.4629V13.9004ZM62.5137 17.1172C61.7402 17.1172 61.1191 16.8359 60.6504 16.2734C60.1855 15.707 59.9531 14.873 59.9531 13.7715C59.9531 12.6582 60.1895 11.8164 60.6621 11.2461C61.1387 10.6758 61.7656 10.3906 62.543 10.3906C62.8711 10.3906 63.1582 10.4355 63.4043 10.5254C63.6504 10.6113 63.8613 10.7285 64.0371 10.877C64.2168 11.0254 64.3691 11.1914 64.4941 11.375H64.5586C64.5391 11.2539 64.5156 11.0801 64.4883 10.8535C64.4648 10.623 64.4531 10.4102 64.4531 10.2148V7.88281H65.8359V17H64.7578L64.5117 16.1152H64.4531C64.3359 16.3027 64.1875 16.4727 64.0078 16.625C63.832 16.7734 63.6211 16.8926 63.375 16.9824C63.1328 17.0723 62.8457 17.1172 62.5137 17.1172ZM62.9004 15.998C63.4902 15.998 63.9062 15.8281 64.1484 15.4883C64.3906 15.1484 64.5156 14.6387 64.5234 13.959V13.7773C64.5234 13.0508 64.4062 12.4941 64.1719 12.1074C63.9375 11.7168 63.5098 11.5215 62.8887 11.5215C62.3926 11.5215 62.0137 11.7227 61.752 12.125C61.4941 12.5234 61.3652 13.0801 61.3652 13.7949C61.3652 14.5098 61.4941 15.0566 61.752 15.4355C62.0137 15.8105 62.3965 15.998 62.9004 15.998Z" fill="#C2C9D1"/>
<path d="M16.2539 12.6348C16.2539 13.5996 16.0742 14.4062 15.7148 15.0547C15.3555 15.6992 14.834 16.1855 14.1504 16.5137C13.4668 16.8379 12.6426 17 11.6777 17H9.29883V8.43359H11.9355C12.8223 8.43359 13.5879 8.59375 14.2324 8.91406C14.877 9.23047 15.375 9.70117 15.7266 10.3262C16.0781 10.9473 16.2539 11.7168 16.2539 12.6348ZM14.7891 12.6758C14.7891 11.9727 14.6777 11.3945 14.4551 10.9414C14.2363 10.4883 13.9121 10.1523 13.4824 9.93359C13.0566 9.71094 12.5312 9.59961 11.9062 9.59961H10.7051V15.8223H11.7012C12.7363 15.8223 13.5098 15.5586 14.0215 15.0312C14.5332 14.5039 14.7891 13.7188 14.7891 12.6758ZM23.7012 13.7422C23.7012 14.2812 23.6309 14.7598 23.4902 15.1777C23.3496 15.5957 23.1445 15.9492 22.875 16.2383C22.6055 16.5234 22.2812 16.7422 21.9023 16.8945C21.5234 17.043 21.0957 17.1172 20.6191 17.1172C20.1738 17.1172 19.7656 17.043 19.3945 16.8945C19.0234 16.7422 18.7012 16.5234 18.4277 16.2383C18.1582 15.9492 17.9492 15.5957 17.8008 15.1777C17.6523 14.7598 17.5781 14.2812 17.5781 13.7422C17.5781 13.0273 17.7012 12.4219 17.9473 11.9258C18.1973 11.4258 18.5527 11.0449 19.0137 10.7832C19.4746 10.5215 20.0234 10.3906 20.6602 10.3906C21.2578 10.3906 21.7852 10.5215 22.2422 10.7832C22.6992 11.0449 23.0566 11.4258 23.3145 11.9258C23.5723 12.4258 23.7012 13.0312 23.7012 13.7422ZM18.9961 13.7422C18.9961 14.2148 19.0527 14.6191 19.166 14.9551C19.2832 15.291 19.4629 15.5488 19.7051 15.7285C19.9473 15.9043 20.2598 15.9922 20.6426 15.9922C21.0254 15.9922 21.3379 15.9043 21.5801 15.7285C21.8223 15.5488 22 15.291 22.1133 14.9551C22.2266 14.6191 22.2832 14.2148 22.2832 13.7422C22.2832 13.2695 22.2266 12.8691 22.1133 12.541C22 12.209 21.8223 11.957 21.5801 11.7852C21.3379 11.6094 21.0234 11.5215 20.6367 11.5215C20.0664 11.5215 19.6504 11.7129 19.3887 12.0957C19.127 12.4785 18.9961 13.0273 18.9961 13.7422ZM30.5859 16.9941L29.7656 13.9766C29.7266 13.8281 29.6797 13.6484 29.625 13.4375C29.5703 13.2266 29.5156 13.0098 29.4609 12.7871C29.4062 12.5605 29.3555 12.3516 29.3086 12.1602C29.2656 11.9688 29.2324 11.8203 29.209 11.7148H29.1621C29.1426 11.8203 29.1113 11.9688 29.0684 12.1602C29.0254 12.3516 28.9766 12.5605 28.9219 12.7871C28.8672 13.0137 28.8125 13.2344 28.7578 13.4492C28.707 13.6641 28.6602 13.8477 28.6172 14L27.7559 16.9941H26.2441L24.4277 10.5078H25.8223L26.666 13.7305C26.7207 13.9492 26.7734 14.1855 26.8242 14.4395C26.8789 14.6934 26.9258 14.9355 26.9648 15.166C27.0039 15.3965 27.0332 15.5859 27.0527 15.7344H27.0996C27.1152 15.6289 27.1367 15.4961 27.1641 15.3359C27.1914 15.1719 27.2227 15.002 27.2578 14.8262C27.293 14.6465 27.3281 14.4785 27.3633 14.3223C27.3984 14.1621 27.4316 14.0332 27.4629 13.9355L28.459 10.5078H29.9648L30.9199 13.9355C30.9629 14.084 31.0098 14.2715 31.0605 14.498C31.1113 14.7207 31.1562 14.9453 31.1953 15.1719C31.2383 15.3945 31.2656 15.5801 31.2773 15.7285H31.3242C31.3398 15.5957 31.3672 15.416 31.4062 15.1895C31.4492 14.959 31.498 14.7148 31.5527 14.457C31.6074 14.1953 31.6641 13.9531 31.7227 13.7305L32.584 10.5078H33.9551L32.127 16.9941H30.5859ZM38.4492 10.3906C39.1797 10.3906 39.748 10.5801 40.1543 10.959C40.5645 11.334 40.7695 11.9375 40.7695 12.7695V17H39.3926V13.0273C39.3926 12.5234 39.2891 12.1465 39.082 11.8965C38.875 11.6426 38.5547 11.5156 38.1211 11.5156C37.4922 11.5156 37.0547 11.709 36.8086 12.0957C36.5664 12.4824 36.4453 13.043 36.4453 13.7773V17H35.0684V10.5137H36.1406L36.334 11.3926H36.4102C36.5508 11.166 36.7246 10.9805 36.9316 10.8359C37.1426 10.6875 37.377 10.5762 37.6348 10.502C37.8965 10.4277 38.168 10.3906 38.4492 10.3906ZM44.0801 17H42.6973V7.88281H44.0801V17ZM51.791 13.7422C51.791 14.2812 51.7207 14.7598 51.5801 15.1777C51.4395 15.5957 51.2344 15.9492 50.9648 16.2383C50.6953 16.5234 50.3711 16.7422 49.9922 16.8945C49.6133 17.043 49.1855 17.1172 48.709 17.1172C48.2637 17.1172 47.8555 17.043 47.4844 16.8945C47.1133 16.7422 46.791 16.5234 46.5176 16.2383C46.248 15.9492 46.0391 15.5957 45.8906 15.1777C45.7422 14.7598 45.668 14.2812 45.668 13.7422C45.668 13.0273 45.791 12.4219 46.0371 11.9258C46.2871 11.4258 46.6426 11.0449 47.1035 10.7832C47.5645 10.5215 48.1133 10.3906 48.75 10.3906C49.3477 10.3906 49.875 10.5215 50.332 10.7832C50.7891 11.0449 51.1465 11.4258 51.4043 11.9258C51.6621 12.4258 51.791 13.0312 51.791 13.7422ZM47.0859 13.7422C47.0859 14.2148 47.1426 14.6191 47.2559 14.9551C47.373 15.291 47.5527 15.5488 47.7949 15.7285C48.0371 15.9043 48.3496 15.9922 48.7324 15.9922C49.1152 15.9922 49.4277 15.9043 49.6699 15.7285C49.9121 15.5488 50.0898 15.291 50.2031 14.9551C50.3164 14.6191 50.373 14.2148 50.373 13.7422C50.373 13.2695 50.3164 12.8691 50.2031 12.541C50.0898 12.209 49.9121 11.957 49.6699 11.7852C49.4277 11.6094 49.1133 11.5215 48.7266 11.5215C48.1562 11.5215 47.7402 11.7129 47.4785 12.0957C47.2168 12.4785 47.0859 13.0273 47.0859 13.7422ZM55.916 10.3906C56.7363 10.3906 57.3555 10.5723 57.7734 10.9355C58.1953 11.2988 58.4062 11.8652 58.4062 12.6348V17H57.4277L57.1641 16.0801H57.1172C56.9336 16.3145 56.7441 16.5078 56.5488 16.6602C56.3535 16.8125 56.127 16.9258 55.8691 17C55.6152 17.0781 55.3047 17.1172 54.9375 17.1172C54.5508 17.1172 54.2051 17.0469 53.9004 16.9062C53.5957 16.7617 53.3555 16.543 53.1797 16.25C53.0039 15.957 52.916 15.5859 52.916 15.1367C52.916 14.4688 53.1641 13.9668 53.6602 13.6309C54.1602 13.2949 54.9141 13.1094 55.9219 13.0742L57.0469 13.0332V12.6934C57.0469 12.2441 56.9414 11.9238 56.7305 11.7324C56.5234 11.541 56.2305 11.4453 55.8516 11.4453C55.5273 11.4453 55.2129 11.4922 54.9082 11.5859C54.6035 11.6797 54.3066 11.7949 54.0176 11.9316L53.5723 10.959C53.8887 10.791 54.248 10.6543 54.6504 10.5488C55.0566 10.4434 55.4785 10.3906 55.916 10.3906ZM57.041 13.9004L56.2031 13.9297C55.5156 13.9531 55.0332 14.0703 54.7559 14.2812C54.4785 14.4922 54.3398 14.7812 54.3398 15.1484C54.3398 15.4688 54.4355 15.7031 54.627 15.8516C54.8184 15.9961 55.0703 16.0684 55.3828 16.0684C55.8594 16.0684 56.2539 15.9336 56.5664 15.6641C56.8828 15.3906 57.041 14.9902 57.041 14.4629V13.9004ZM62.5137 17.1172C61.7402 17.1172 61.1191 16.8359 60.6504 16.2734C60.1855 15.707 59.9531 14.873 59.9531 13.7715C59.9531 12.6582 60.1895 11.8164 60.6621 11.2461C61.1387 10.6758 61.7656 10.3906 62.543 10.3906C62.8711 10.3906 63.1582 10.4355 63.4043 10.5254C63.6504 10.6113 63.8613 10.7285 64.0371 10.877C64.2168 11.0254 64.3691 11.1914 64.4941 11.375H64.5586C64.5391 11.2539 64.5156 11.0801 64.4883 10.8535C64.4648 10.623 64.4531 10.4102 64.4531 10.2148V7.88281H65.8359V17H64.7578L64.5117 16.1152H64.4531C64.3359 16.3027 64.1875 16.4727 64.0078 16.625C63.832 16.7734 63.6211 16.8926 63.375 16.9824C63.1328 17.0723 62.8457 17.1172 62.5137 17.1172ZM62.9004 15.998C63.4902 15.998 63.9062 15.8281 64.1484 15.4883C64.3906 15.1484 64.5156 14.6387 64.5234 13.959V13.7773C64.5234 13.0508 64.4062 12.4941 64.1719 12.1074C63.9375 11.7168 63.5098 11.5215 62.8887 11.5215C62.3926 11.5215 62.0137 11.7227 61.752 12.125C61.4941 12.5234 61.3652 13.0801 61.3652 13.7949C61.3652 14.5098 61.4941 15.0566 61.752 15.4355C62.0137 15.8105 62.3965 15.998 62.9004 15.998Z" fill="black" fill-opacity="0.25"/>
<path d="M83.6668 10H81.0002V6H77.0002V10H74.3335L79.0002 14.6667L83.6668 10ZM74.3335 16V17.3333H83.6668V16H74.3335Z" fill="#C2C9D1"/>
<path d="M83.6668 10H81.0002V6H77.0002V10H74.3335L79.0002 14.6667L83.6668 10ZM74.3335 16V17.3333H83.6668V16H74.3335Z" fill="black" fill-opacity="0.25"/>
<rect x="0.5" y="0.5" width="90" height="23" rx="3.5" stroke="#C2C9D1"/>
<rect x="0.5" y="0.5" width="90" height="23" rx="3.5" stroke="white" stroke-opacity="0.5"/>
</svg>
