<svg width="13" height="14" viewBox="0 0 13 14" fill="none" xmlns="http://www.w3.org/2000/svg">
<path d="M12.1376 4.32787L8.13757 0.823874C7.75357 0.482541 7.3109 0.311874 6.80957 0.311874C6.30824 0.311874 5.86557 0.482541 5.48157 0.823874L1.48157 4.32787C1.26824 4.51987 1.1029 4.74654 0.98557 5.00787C0.868237 5.26921 0.80957 5.54387 0.80957 5.83187V11.6719C0.80957 12.0345 0.900237 12.3679 1.08157 12.6719C1.2629 12.9759 1.50557 13.2185 1.80957 13.3999C2.11357 13.5812 2.4469 13.6719 2.80957 13.6719H10.8096C11.1722 13.6719 11.5056 13.5812 11.8096 13.3999C12.1136 13.2185 12.3562 12.9759 12.5376 12.6719C12.7189 12.3679 12.8096 12.0345 12.8096 11.6719V5.83187C12.8096 5.54387 12.7509 5.26921 12.6336 5.00787C12.5162 4.74654 12.3509 4.51987 12.1376 4.32787ZM8.13757 12.3279H5.48157V8.99987C5.48157 8.81854 5.54557 8.66121 5.67357 8.52787C5.80157 8.39454 5.95624 8.32787 6.13757 8.32787H7.48157C7.6629 8.32787 7.81757 8.39454 7.94557 8.52787C8.07357 8.66121 8.13757 8.81854 8.13757 8.99987V12.3279ZM11.4816 11.6719C11.4816 11.8532 11.4149 12.0079 11.2816 12.1359C11.1482 12.2639 10.9909 12.3279 10.8096 12.3279H9.48157V8.99987C9.48157 8.63721 9.3909 8.30387 9.20957 7.99987C9.02824 7.69587 8.78557 7.45321 8.48157 7.27187C8.17757 7.09054 7.84424 6.99987 7.48157 6.99987H6.13757C5.7749 6.99987 5.44157 7.09054 5.13757 7.27187C4.83357 7.45321 4.5909 7.69587 4.40957 7.99987C4.22824 8.30387 4.13757 8.63721 4.13757 8.99987V12.3279H2.80957C2.62824 12.3279 2.4709 12.2639 2.33757 12.1359C2.20424 12.0079 2.13757 11.8532 2.13757 11.6719V5.83187C2.14824 5.62921 2.22824 5.46387 2.37757 5.33587L6.37757 1.83187C6.50557 1.72521 6.65224 1.67187 6.81757 1.67187C6.9829 1.67187 7.12957 1.72521 7.25757 1.83187L11.2576 5.33587C11.4069 5.46387 11.4816 5.62921 11.4816 5.83187V11.6719Z" fill="#747474"/>
</svg>
