<svg width="14" height="15" viewBox="0 0 14 15" fill="none" xmlns="http://www.w3.org/2000/svg">
<path d="M7.73687 0.780222V8.25391H6.26318V0.780222H7.73687ZM11.3509 2.39426C12.9415 3.75098 13.7369 5.45858 13.7369 7.51706C13.7369 9.38841 13.0819 10.9791 11.772 12.289C10.462 13.5989 8.87137 14.2539 7.00003 14.2539C5.12868 14.2539 3.53804 13.5989 2.2281 12.289C0.918154 10.9791 0.263184 9.38841 0.263184 7.51706C0.263184 5.45858 1.05851 3.75098 2.64915 2.39426L3.70178 3.44689C2.41523 4.49952 1.77196 5.85625 1.77196 7.51706C1.77196 8.96736 2.28073 10.2013 3.29827 11.2188C4.31582 12.2364 5.54973 12.7451 7.00003 12.7451C8.45032 12.7451 9.68424 12.2364 10.7018 11.2188C11.7193 10.2013 12.2281 8.96736 12.2281 7.51706C12.2281 5.85625 11.5848 4.51122 10.2983 3.48198L11.3509 2.39426Z" fill="#506B8E"/>
</svg>
