<?xml version="1.0" encoding="utf-8"?>
<svg viewBox="2.377 1.505 3.046 3.046" xmlns="http://www.w3.org/2000/svg">
  <path d="M 5.423 3.066 L 5.423 3.035 C 5.423 2.849 5.253 2.698 5.045 2.698 C 4.998 2.698 4.953 2.705 4.912 2.719 C 4.876 2.566 4.724 2.45 4.542 2.45 C 4.492 2.45 4.445 2.459 4.402 2.474 C 4.356 2.333 4.204 2.225 4.03 2.225 C 3.983 2.225 3.937 2.233 3.895 2.248 L 3.895 1.843 C 3.895 1.656 3.726 1.505 3.518 1.505 C 3.309 1.505 3.14 1.656 3.14 1.843 L 3.14 2.836 C 3.074 2.761 2.995 2.695 2.902 2.662 C 2.799 2.623 2.691 2.628 2.589 2.674 C 2.401 2.76 2.324 2.965 2.416 3.133 L 2.885 3.981 C 2.899 4.004 3.217 4.551 3.792 4.551 L 4.464 4.551 C 4.993 4.551 5.423 4.164 5.423 3.689 L 5.423 3.066 Z M 4.464 4.326 L 3.792 4.326 C 3.378 4.326 3.119 3.895 3.11 3.879 L 2.642 3.033 C 2.61 2.975 2.637 2.905 2.703 2.875 C 2.74 2.858 2.771 2.857 2.806 2.869 C 2.945 2.92 3.082 3.166 3.135 3.308 L 3.176 3.417 L 3.392 3.349 L 3.392 1.843 C 3.392 1.78 3.448 1.73 3.518 1.73 C 3.587 1.73 3.643 1.78 3.643 1.843 L 3.643 3.14 L 3.646 3.14 L 3.895 3.14 L 3.898 3.14 L 3.898 2.57 C 3.898 2.507 3.961 2.45 4.03 2.45 C 4.101 2.45 4.164 2.503 4.164 2.563 L 4.164 2.788 L 4.164 3.178 L 4.416 3.178 L 4.416 2.788 C 4.416 2.726 4.472 2.675 4.542 2.675 C 4.611 2.675 4.667 2.726 4.667 2.788 L 4.667 3.035 L 4.667 3.282 L 4.92 3.282 L 4.92 3.035 C 4.92 2.973 4.976 2.922 5.045 2.922 C 5.115 2.922 5.171 2.973 5.171 3.035 L 5.171 3.196 L 5.172 3.196 L 5.172 3.689 C 5.172 4.04 4.854 4.326 4.464 4.326 Z"/>
</svg>