<svg width="12" height="12" viewBox="0 0 12 12" fill="none" xmlns="http://www.w3.org/2000/svg">
<path d="M9.47006 8.63465L12 11.1646L11.1646 12L8.63465 9.47006C7.72497 10.1978 6.57133 10.6332 5.31661 10.6332C2.38184 10.6332 0 8.25138 0 5.31661C0 2.38184 2.38184 0 5.31661 0C8.25138 0 10.6332 2.38184 10.6332 5.31661C10.6332 6.57133 10.1978 7.72497 9.47006 8.63465ZM8.28487 8.19632C9.00722 7.45188 9.45175 6.43641 9.45175 5.31661C9.45175 3.03194 7.60127 1.18147 5.31661 1.18147C3.03194 1.18147 1.18147 3.03194 1.18147 5.31661C1.18147 7.60127 3.03194 9.45175 5.31661 9.45175C6.43641 9.45175 7.45188 9.00722 8.19632 8.28487L8.28487 8.19632ZM6.01244 3.05778C5.60217 3.24303 5.31661 3.65574 5.31661 4.13514C5.31661 4.78767 5.84555 5.31661 6.49808 5.31661C6.97746 5.31661 7.39021 5.03105 7.57546 4.62079C7.6431 4.84077 7.67955 5.07441 7.67955 5.31661C7.67955 6.6216 6.6216 7.67955 5.31661 7.67955C4.01159 7.67955 2.95367 6.6216 2.95367 5.31661C2.95367 4.01159 4.01159 2.95367 5.31661 2.95367C5.55881 2.95367 5.79245 2.9901 6.01244 3.05778Z" fill="#92979D"/>
</svg>
