<svg width="13" height="13" viewBox="0 0 13 13" fill="none" xmlns="http://www.w3.org/2000/svg">
<path d="M9.625 0.25C9.97019 0.25 10.25 0.529825 10.25 0.875V3.375H12.125C12.4702 3.375 12.75 3.65482 12.75 4V10.25C12.75 10.5952 12.4702 10.875 12.125 10.875H10.25V12.125C10.25 12.4702 9.97019 12.75 9.625 12.75H3.375C3.02982 12.75 2.75 12.4702 2.75 12.125V10.875H0.875C0.529825 10.875 0.25 10.5952 0.25 10.25V4C0.25 3.65482 0.529825 3.375 0.875 3.375H2.75V0.875C2.75 0.529825 3.02982 0.25 3.375 0.25H9.625ZM9 9.625H4V11.5H9V9.625ZM11.5 4.625H1.5V9.625H2.75V9C2.75 8.65481 3.02982 8.375 3.375 8.375H9.625C9.97019 8.375 10.25 8.65481 10.25 9V9.625H11.5V4.625ZM4 5.25V6.5H2.125V5.25H4ZM9 1.5H4V3.375H9V1.5Z" fill="#92979D"/>
</svg>
