<svg width="56" height="24" viewBox="0 0 56 24" fill="none" xmlns="http://www.w3.org/2000/svg">
<rect x="0.5" y="0.5" width="55" height="23" rx="3.5" fill="#F3AA1C"/>
<rect x="0.5" y="0.5" width="55" height="23" rx="3.5" fill="white" fill-opacity="0.9"/>
<path d="M12.0039 8.43359C12.7422 8.43359 13.3516 8.52344 13.832 8.70312C14.3164 8.88281 14.6758 9.15625 14.9102 9.52344C15.1484 9.89062 15.2676 10.3574 15.2676 10.9238C15.2676 11.3457 15.1895 11.7051 15.0332 12.002C14.877 12.2988 14.6719 12.5449 14.418 12.7402C14.1641 12.9355 13.8926 13.0918 13.6035 13.209L16.0352 17H14.4473L12.3789 13.5664H11.002V17H9.5957V8.43359H12.0039ZM11.9102 9.60547H11.002V12.4062H11.9746C12.627 12.4062 13.0996 12.2852 13.3926 12.043C13.6895 11.8008 13.8379 11.4434 13.8379 10.9707C13.8379 10.4746 13.6797 10.123 13.3633 9.91602C13.0508 9.70898 12.5664 9.60547 11.9102 9.60547ZM22.1113 17H17.2598V8.43359H22.1113V9.61719H18.666V11.9434H21.8945V13.1211H18.666V15.8105H22.1113V17ZM22.8965 19.3848C22.6816 19.3848 22.4941 19.3711 22.334 19.3438C22.1699 19.3203 22.0293 19.2871 21.9121 19.2441V18.0664C22.0371 18.0977 22.1719 18.125 22.3164 18.1484C22.4609 18.1719 22.6152 18.1836 22.7793 18.1836C22.9941 18.1836 23.1895 18.1426 23.3652 18.0605C23.541 17.9785 23.6797 17.8301 23.7812 17.6152C23.8867 17.4004 23.9395 17.0977 23.9395 16.707V8.43359H25.3457V16.6602C25.3457 17.2969 25.2441 17.8145 25.041 18.2129C24.8379 18.6152 24.5527 18.9102 24.1855 19.0977C23.8184 19.2891 23.3887 19.3848 22.8965 19.3848ZM32.4121 17H27.5605V8.43359H32.4121V9.61719H28.9668V11.9434H32.1953V13.1211H28.9668V15.8105H32.4121V17ZM37.9141 9.50586C37.5039 9.50586 37.1367 9.58008 36.8125 9.72852C36.4922 9.87695 36.2207 10.0918 35.998 10.373C35.7754 10.6504 35.6055 10.9883 35.4883 11.3867C35.3711 11.7812 35.3125 12.2266 35.3125 12.7227C35.3125 13.3867 35.4062 13.959 35.5938 14.4395C35.7812 14.916 36.0664 15.2832 36.4492 15.541C36.832 15.7949 37.3164 15.9219 37.9023 15.9219C38.2656 15.9219 38.6191 15.8867 38.9629 15.8164C39.3066 15.7461 39.6621 15.6504 40.0293 15.5293V16.7246C39.6816 16.8613 39.3301 16.9609 38.9746 17.0234C38.6191 17.0859 38.209 17.1172 37.7441 17.1172C36.8691 17.1172 36.1426 16.9355 35.5645 16.5723C34.9902 16.209 34.5605 15.6973 34.2754 15.0371C33.9941 14.377 33.8535 13.6035 33.8535 12.7168C33.8535 12.0684 33.9434 11.4746 34.123 10.9355C34.3027 10.3965 34.5645 9.93164 34.9082 9.54102C35.252 9.14648 35.6758 8.84375 36.1797 8.63281C36.6875 8.41797 37.2676 8.31055 37.9199 8.31055C38.3496 8.31055 38.7715 8.35938 39.1855 8.45703C39.6035 8.55078 39.9902 8.68555 40.3457 8.86133L39.8535 10.0215C39.5566 9.88086 39.2461 9.75977 38.9219 9.6582C38.5977 9.55664 38.2617 9.50586 37.9141 9.50586ZM44.8398 17H43.4277V9.62891H40.9199V8.43359H47.3418V9.62891H44.8398V17Z" fill="#F3AA1C"/>
<path d="M12.0039 8.43359C12.7422 8.43359 13.3516 8.52344 13.832 8.70312C14.3164 8.88281 14.6758 9.15625 14.9102 9.52344C15.1484 9.89062 15.2676 10.3574 15.2676 10.9238C15.2676 11.3457 15.1895 11.7051 15.0332 12.002C14.877 12.2988 14.6719 12.5449 14.418 12.7402C14.1641 12.9355 13.8926 13.0918 13.6035 13.209L16.0352 17H14.4473L12.3789 13.5664H11.002V17H9.5957V8.43359H12.0039ZM11.9102 9.60547H11.002V12.4062H11.9746C12.627 12.4062 13.0996 12.2852 13.3926 12.043C13.6895 11.8008 13.8379 11.4434 13.8379 10.9707C13.8379 10.4746 13.6797 10.123 13.3633 9.91602C13.0508 9.70898 12.5664 9.60547 11.9102 9.60547ZM22.1113 17H17.2598V8.43359H22.1113V9.61719H18.666V11.9434H21.8945V13.1211H18.666V15.8105H22.1113V17ZM22.8965 19.3848C22.6816 19.3848 22.4941 19.3711 22.334 19.3438C22.1699 19.3203 22.0293 19.2871 21.9121 19.2441V18.0664C22.0371 18.0977 22.1719 18.125 22.3164 18.1484C22.4609 18.1719 22.6152 18.1836 22.7793 18.1836C22.9941 18.1836 23.1895 18.1426 23.3652 18.0605C23.541 17.9785 23.6797 17.8301 23.7812 17.6152C23.8867 17.4004 23.9395 17.0977 23.9395 16.707V8.43359H25.3457V16.6602C25.3457 17.2969 25.2441 17.8145 25.041 18.2129C24.8379 18.6152 24.5527 18.9102 24.1855 19.0977C23.8184 19.2891 23.3887 19.3848 22.8965 19.3848ZM32.4121 17H27.5605V8.43359H32.4121V9.61719H28.9668V11.9434H32.1953V13.1211H28.9668V15.8105H32.4121V17ZM37.9141 9.50586C37.5039 9.50586 37.1367 9.58008 36.8125 9.72852C36.4922 9.87695 36.2207 10.0918 35.998 10.373C35.7754 10.6504 35.6055 10.9883 35.4883 11.3867C35.3711 11.7812 35.3125 12.2266 35.3125 12.7227C35.3125 13.3867 35.4062 13.959 35.5938 14.4395C35.7812 14.916 36.0664 15.2832 36.4492 15.541C36.832 15.7949 37.3164 15.9219 37.9023 15.9219C38.2656 15.9219 38.6191 15.8867 38.9629 15.8164C39.3066 15.7461 39.6621 15.6504 40.0293 15.5293V16.7246C39.6816 16.8613 39.3301 16.9609 38.9746 17.0234C38.6191 17.0859 38.209 17.1172 37.7441 17.1172C36.8691 17.1172 36.1426 16.9355 35.5645 16.5723C34.9902 16.209 34.5605 15.6973 34.2754 15.0371C33.9941 14.377 33.8535 13.6035 33.8535 12.7168C33.8535 12.0684 33.9434 11.4746 34.123 10.9355C34.3027 10.3965 34.5645 9.93164 34.9082 9.54102C35.252 9.14648 35.6758 8.84375 36.1797 8.63281C36.6875 8.41797 37.2676 8.31055 37.9199 8.31055C38.3496 8.31055 38.7715 8.35938 39.1855 8.45703C39.6035 8.55078 39.9902 8.68555 40.3457 8.86133L39.8535 10.0215C39.5566 9.88086 39.2461 9.75977 38.9219 9.6582C38.5977 9.55664 38.2617 9.50586 37.9141 9.50586ZM44.8398 17H43.4277V9.62891H40.9199V8.43359H47.3418V9.62891H44.8398V17Z" fill="black" fill-opacity="0.25"/>
<rect x="0.5" y="0.5" width="55" height="23" rx="3.5" stroke="#F3AA1C"/>
<rect x="0.5" y="0.5" width="55" height="23" rx="3.5" stroke="white" stroke-opacity="0.5"/>
</svg>
