<svg width="10" height="13" viewBox="0 0 10 13" fill="none" xmlns="http://www.w3.org/2000/svg">
<path d="M2.5 9H7.5V10.25H2.5V9ZM2.5 6.5H7.5V7.75H2.5V6.5ZM6.25 0.25H1.25C0.5625 0.25 0 0.8125 0 1.5V11.5C0 12.1875 0.55625 12.75 1.24375 12.75H8.75C9.4375 12.75 10 12.1875 10 11.5V4L6.25 0.25ZM8.75 11.5H1.25V1.5H5.625V4.625H8.75V11.5Z" fill="#506B8E"/>
<path d="M2.5 9H7.5V10.25H2.5V9ZM2.5 6.5H7.5V7.75H2.5V6.5ZM6.25 0.25H1.25C0.5625 0.25 0 0.8125 0 1.5V11.5C0 12.1875 0.55625 12.75 1.24375 12.75H8.75C9.4375 12.75 10 12.1875 10 11.5V4L6.25 0.25ZM8.75 11.5H1.25V1.5H5.625V4.625H8.75V11.5Z" fill="#506B8E"/>
</svg>
