<svg width="12" height="14" viewBox="0 0 12 14" fill="none" xmlns="http://www.w3.org/2000/svg">
<path d="M8.16658 0.583984H1.16658C0.524916 0.583984 -8.39233e-05 1.10898 -8.39233e-05 1.75065V9.91732H1.16658V1.75065H8.16658V0.583984ZM9.91658 2.91732H3.49992C2.85825 2.91732 2.33325 3.44232 2.33325 4.08398V12.2507C2.33325 12.8923 2.85825 13.4173 3.49992 13.4173H9.91658C10.5582 13.4173 11.0832 12.8923 11.0832 12.2507V4.08398C11.0832 3.44232 10.5582 2.91732 9.91658 2.91732ZM9.91658 12.2507H3.49992V4.08398H9.91658V12.2507Z" fill="#506B8E"/>
<path d="M8.16658 0.583984H1.16658C0.524916 0.583984 -8.39233e-05 1.10898 -8.39233e-05 1.75065V9.91732H1.16658V1.75065H8.16658V0.583984ZM9.91658 2.91732H3.49992C2.85825 2.91732 2.33325 3.44232 2.33325 4.08398V12.2507C2.33325 12.8923 2.85825 13.4173 3.49992 13.4173H9.91658C10.5582 13.4173 11.0832 12.8923 11.0832 12.2507V4.08398C11.0832 3.44232 10.5582 2.91732 9.91658 2.91732ZM9.91658 12.2507H3.49992V4.08398H9.91658V12.2507Z" fill="#506B8E"/>
</svg>
