<svg width="11" height="12" viewBox="0 0 11 12" fill="none" xmlns="http://www.w3.org/2000/svg">
<path d="M9.625 1.04102L8.75 0.166016L7.875 1.04102L7 0.166016L6.125 1.04102L5.25 0.166016L4.375 1.04102L3.5 0.166016L2.625 1.04102L1.75 0.166016L0.875 1.04102L0 0.166016V11.8327L0.875 10.9577L1.75 11.8327L2.625 10.9577L3.5 11.8327L4.375 10.9577L5.25 11.8327L6.125 10.9577L7 11.8327L7.875 10.9577L8.75 11.8327L9.625 10.9577L10.5 11.8327V0.166016L9.625 1.04102ZM9.33333 10.1352H1.16667V1.86352H9.33333V10.1352ZM1.75 7.74935H8.75V8.91602H1.75V7.74935ZM1.75 5.41602H8.75V6.58268H1.75V5.41602ZM1.75 3.08268H8.75V4.24935H1.75V3.08268Z" fill="#506B8E"/>
<path d="M9.625 1.04102L8.75 0.166016L7.875 1.04102L7 0.166016L6.125 1.04102L5.25 0.166016L4.375 1.04102L3.5 0.166016L2.625 1.04102L1.75 0.166016L0.875 1.04102L0 0.166016V11.8327L0.875 10.9577L1.75 11.8327L2.625 10.9577L3.5 11.8327L4.375 10.9577L5.25 11.8327L6.125 10.9577L7 11.8327L7.875 10.9577L8.75 11.8327L9.625 10.9577L10.5 11.8327V0.166016L9.625 1.04102ZM9.33333 10.1352H1.16667V1.86352H9.33333V10.1352ZM1.75 7.74935H8.75V8.91602H1.75V7.74935ZM1.75 5.41602H8.75V6.58268H1.75V5.41602ZM1.75 3.08268H8.75V4.24935H1.75V3.08268Z" fill="#506B8E"/>
</svg>
