<svg width="10" height="10" viewBox="0 0 10 10" fill="none" xmlns="http://www.w3.org/2000/svg">
<path d="M5 0C2.24 0 0 2.24 0 5C0 7.76 2.24 10 5 10C7.76 10 10 7.76 10 5C10 2.24 7.76 0 5 0ZM5 1.5C5.83 1.5 6.5 2.17 6.5 3C6.5 3.83 5.83 4.5 5 4.5C4.17 4.5 3.5 3.83 3.5 3C3.5 2.17 4.17 1.5 5 1.5ZM5 8.6C3.75 8.6 2.645 7.96 2 6.99C2.015 5.995 4 5.45 5 5.45C5.995 5.45 7.985 5.995 8 6.99C7.355 7.96 6.25 8.6 5 8.6Z" fill="#506B8E"/>
<path d="M5 0C2.24 0 0 2.24 0 5C0 7.76 2.24 10 5 10C7.76 10 10 7.76 10 5C10 2.24 7.76 0 5 0ZM5 1.5C5.83 1.5 6.5 2.17 6.5 3C6.5 3.83 5.83 4.5 5 4.5C4.17 4.5 3.5 3.83 3.5 3C3.5 2.17 4.17 1.5 5 1.5ZM5 8.6C3.75 8.6 2.645 7.96 2 6.99C2.015 5.995 4 5.45 5 5.45C5.995 5.45 7.985 5.995 8 6.99C7.355 7.96 6.25 8.6 5 8.6Z" fill="#506B8E"/>
</svg>
