<svg width="13" height="13" viewBox="0 0 13 13" fill="none" xmlns="http://www.w3.org/2000/svg">
<path d="M5.33094 8.29257C5.45564 8.42766 5.61151 8.4952 5.79856 8.4952C5.98561 8.4952 6.14149 8.42766 6.26619 8.29257L8.91607 5.64269C9.04077 5.51799 9.10312 5.36211 9.10312 5.17506C9.10312 4.98801 9.04077 4.83213 8.91607 4.70743C8.79137 4.58273 8.63549 4.52038 8.44844 4.52038C8.26139 4.52038 8.10552 4.58273 7.98082 4.70743L5.79856 6.90528L5.01918 6.11031C4.89448 5.98561 4.73861 5.92326 4.55156 5.92326C4.36451 5.92326 4.20863 5.98561 4.08393 6.11031C3.95923 6.23501 3.89688 6.39089 3.89688 6.57794C3.89688 6.76499 3.95923 6.92086 4.08393 7.04556L5.33094 8.29257ZM12.3453 0H0.654676C0.478018 0 0.32474 0.0649471 0.194844 0.194843C0.0649481 0.324739 0 0.478017 0 0.654675V12.3453C0 12.522 0.0649481 12.6753 0.194844 12.8052C0.32474 12.9351 0.478018 13 0.654676 13H12.3453C12.522 13 12.6753 12.9351 12.8052 12.8052C12.9351 12.6753 13 12.522 13 12.3453V0.654675C13 0.478017 12.9351 0.324739 12.8052 0.194843C12.6753 0.0649471 12.522 0 12.3453 0ZM11.6906 11.6906H1.30935V1.30935H11.6906V11.6906Z" fill="#506B8E"/>
</svg>
