<svg width="15" height="14" viewBox="0 0 15 14" fill="none" xmlns="http://www.w3.org/2000/svg">
<path fill-rule="evenodd" clip-rule="evenodd" d="M6.43627 11.8871C7.75735 11.8871 8.99265 11.4405 9.98775 10.7018L12.6728 13.3902C13.0091 13.7269 13.5547 13.7269 13.8909 13.3902C14.2272 13.0536 14.2264 12.5079 13.8893 12.1721L11.2059 9.49939C11.9436 8.50307 12.3897 7.28344 12.3897 5.94356C12.3897 2.66258 9.73039 0 6.45343 0C3.17647 0 0.5 2.67975 0.5 5.94356C0.5 9.20736 3.17647 11.8871 6.43627 11.8871ZM6.5375 1.75C8.90783 1.75 10.825 3.60849 10.825 5.90625C10.825 8.20401 8.90783 10.0625 6.5375 10.0625C4.16718 10.0625 2.25 8.20401 2.25 5.90625C2.25 3.60849 4.1846 1.75 6.5375 1.75Z" fill="#69788C"/>
</svg>
