<svg width="12" height="16" viewBox="0 0 12 16" fill="none" xmlns="http://www.w3.org/2000/svg">
<path d="M6.75 9.05343H3.744C3.54 9.05343 3.363 9.12843 3.213 9.27843C3.063 9.42843 2.988 9.60543 2.988 9.80943C2.988 10.0134 3.063 10.1904 3.213 10.3404C3.363 10.4904 3.54 10.5654 3.744 10.5654H6.75C6.954 10.5654 7.131 10.4904 7.281 10.3404C7.431 10.1904 7.506 10.0134 7.506 9.80943C7.506 9.60543 7.431 9.42843 7.281 9.27843C7.131 9.12843 6.954 9.05343 6.75 9.05343ZM9.738 1.56543H8.856C8.7 1.12143 8.43 0.75843 8.046 0.47643C7.662 0.19443 7.23 0.0534306 6.75 0.0534306H5.238C4.758 0.0534306 4.326 0.19443 3.942 0.47643C3.558 0.75843 3.288 1.12143 3.132 1.56543H2.25C1.842 1.56543 1.467 1.66743 1.125 1.87143C0.783 2.07543 0.51 2.34843 0.306 2.69043C0.102 3.03243 0 3.40743 0 3.81543V12.8154C0 13.2234 0.102 13.5984 0.306 13.9404C0.51 14.2824 0.783 14.5554 1.125 14.7594C1.467 14.9634 1.842 15.0654 2.25 15.0654H9.738C10.146 15.0654 10.521 14.9634 10.863 14.7594C11.205 14.5554 11.478 14.2824 11.682 13.9404C11.886 13.5984 11.988 13.2234 11.988 12.8154V3.81543C11.988 3.40743 11.886 3.03243 11.682 2.69043C11.478 2.34843 11.205 2.07543 10.863 1.87143C10.521 1.66743 10.146 1.56543 9.738 1.56543ZM4.5 2.30343C4.5 2.09943 4.572 1.92543 4.716 1.78143C4.86 1.63743 5.034 1.56543 5.238 1.56543H6.75C6.954 1.56543 7.128 1.63743 7.272 1.78143C7.416 1.92543 7.488 2.09943 7.488 2.30343V3.05943H4.5V2.30343ZM10.494 12.8154C10.494 13.0194 10.419 13.1934 10.269 13.3374C10.119 13.4814 9.942 13.5534 9.738 13.5534H2.25C2.046 13.5534 1.869 13.4814 1.719 13.3374C1.569 13.1934 1.494 13.0194 1.494 12.8154V3.81543C1.494 3.61143 1.569 3.43443 1.719 3.28443C1.869 3.13443 2.046 3.05943 2.25 3.05943H2.988V3.81543C2.988 4.01943 3.063 4.19343 3.213 4.33743C3.363 4.48143 3.54 4.55343 3.744 4.55343H8.244C8.448 4.55343 8.625 4.48143 8.775 4.33743C8.925 4.19343 9 4.01943 9 3.81543V3.05943H9.738C9.942 3.05943 10.119 3.13443 10.269 3.28443C10.419 3.43443 10.494 3.61143 10.494 3.81543V12.8154ZM8.244 6.06543H3.744C3.564 6.08943 3.411 6.17343 3.285 6.31743C3.159 6.46143 3.096 6.62643 3.096 6.81243C3.096 6.99843 3.159 7.16343 3.285 7.30743C3.411 7.45143 3.564 7.53543 3.744 7.55943H8.244C8.424 7.53543 8.577 7.45143 8.703 7.30743C8.829 7.16343 8.892 6.99843 8.892 6.81243C8.892 6.62643 8.829 6.46143 8.703 6.31743C8.577 6.17343 8.424 6.08943 8.244 6.06543Z" fill="#506B8E"/>
</svg>
