<svg width="25" height="28" viewBox="0 0 25 28" fill="none" xmlns="http://www.w3.org/2000/svg">
<path d="M24.4902 18.0004C24.4902 17.1898 24.2609 16.4431 23.8022 15.7604C23.3436 15.0778 22.7302 14.5871 21.9622 14.2884L24.4582 4.94442C24.5649 4.51775 24.4796 4.13909 24.2022 3.80842C23.9249 3.47775 23.5729 3.32309 23.1462 3.34442H4.87423L4.45823 1.64842C4.3729 1.34975 4.20757 1.10975 3.96223 0.928419C3.7169 0.747086 3.4449 0.656418 3.14623 0.656418H0.490234V3.34442H2.12223L5.41823 15.6644C5.50357 15.9631 5.6689 16.2084 5.91423 16.4004C6.15957 16.5924 6.44223 16.6778 6.76223 16.6564H20.4902C20.8529 16.6564 21.1676 16.7898 21.4342 17.0564C21.7009 17.3231 21.8342 17.6378 21.8342 18.0004C21.8342 18.3631 21.7009 18.6778 21.4342 18.9444C21.1676 19.2111 20.8529 19.3444 20.4902 19.3444H3.14623C2.82623 19.3871 2.55423 19.5364 2.33023 19.7924C2.10623 20.0484 1.99423 20.3418 1.99423 20.6724C1.99423 21.0031 2.10623 21.2964 2.33023 21.5524C2.55423 21.8084 2.82623 21.9578 3.14623 22.0004H4.71423C4.41557 22.8324 4.39423 23.6698 4.65023 24.5124C4.90623 25.3551 5.38623 26.0431 6.09023 26.5764C6.79423 27.1098 7.5889 27.3764 8.47423 27.3764C9.35957 27.3764 10.1542 27.1098 10.8582 26.5764C11.5622 26.0431 12.0422 25.3551 12.2982 24.5124C12.5542 23.6698 12.5329 22.8324 12.2342 22.0004H15.4022C15.1249 22.7471 15.0769 23.5151 15.2582 24.3044C15.4396 25.0938 15.8182 25.7658 16.3942 26.3204C16.9702 26.8751 17.6582 27.2218 18.4582 27.3604C19.2582 27.4991 20.0262 27.4031 20.7622 27.0724C21.4982 26.7418 22.0849 26.2404 22.5222 25.5684C22.9596 24.8964 23.1676 24.1551 23.1462 23.3444C23.1462 22.6404 22.9756 21.9791 22.6342 21.3604C23.2102 20.9978 23.6636 20.5178 23.9942 19.9204C24.3249 19.3231 24.4902 18.6831 24.4902 18.0004ZM19.2742 14.0004H7.81823L5.61023 6.00042H21.4182L19.2742 14.0004ZM8.49023 24.6564C8.2129 24.6564 7.96223 24.5818 7.73823 24.4324C7.51423 24.2831 7.3489 24.0804 7.24223 23.8244C7.13557 23.5684 7.11423 23.3071 7.17823 23.0404C7.24223 22.7738 7.37023 22.5444 7.56223 22.3524C7.75423 22.1604 7.98357 22.0378 8.25023 21.9844C8.5169 21.9311 8.77823 21.9631 9.03424 22.0804C9.29023 22.1978 9.48757 22.3684 9.62624 22.5924C9.7649 22.8164 9.83424 23.0671 9.83424 23.3444C9.83424 23.7071 9.7009 24.0164 9.43423 24.2724C9.16757 24.5284 8.8529 24.6564 8.49023 24.6564ZM19.1462 24.6564C18.8689 24.6564 18.6182 24.5818 18.3942 24.4324C18.1702 24.2831 18.0049 24.0804 17.8982 23.8244C17.7916 23.5684 17.7702 23.3071 17.8342 23.0404C17.8982 22.7738 18.0262 22.5444 18.2182 22.3524C18.4102 22.1604 18.6396 22.0378 18.9062 21.9844C19.1729 21.9311 19.4342 21.9631 19.6902 22.0804C19.9462 22.1978 20.1436 22.3684 20.2822 22.5924C20.4209 22.8164 20.4902 23.0671 20.4902 23.3444C20.4902 23.7071 20.3569 24.0164 20.0902 24.2724C19.8236 24.5284 19.5089 24.6564 19.1462 24.6564Z" fill="#00AAFF"/>
</svg>
