<svg width="17" height="14" viewBox="0 0 17 14" fill="none" xmlns="http://www.w3.org/2000/svg">
<path d="M8.478 7.16167C8.886 6.81367 9.198 6.39667 9.414 5.91067C9.63 5.42467 9.738 4.91167 9.738 4.37167C9.738 3.68767 9.57 3.06067 9.234 2.49067C8.898 1.92067 8.445 1.46767 7.875 1.13167C7.305 0.795673 6.678 0.627672 5.994 0.627672C5.31 0.627672 4.683 0.795673 4.113 1.13167C3.543 1.46767 3.09 1.92067 2.754 2.49067C2.418 3.06067 2.25 3.68767 2.25 4.37167C2.25 4.91167 2.358 5.42467 2.574 5.91067C2.79 6.39667 3.102 6.81367 3.51 7.16167C2.442 7.65367 1.59 8.39167 0.954 9.37567C0.318 10.3597 0 11.4397 0 12.6157C0.024 12.7957 0.108 12.9487 0.252 13.0747C0.396 13.2007 0.561 13.2637 0.747 13.2637C0.933 13.2637 1.098 13.2007 1.242 13.0747C1.386 12.9487 1.47 12.7957 1.494 12.6157C1.494 11.7997 1.695 11.0467 2.097 10.3567C2.499 9.66667 3.045 9.12067 3.735 8.71867C4.425 8.31667 5.178 8.11567 5.994 8.11567C6.81 8.11567 7.563 8.31667 8.253 8.71867C8.943 9.12067 9.489 9.66667 9.891 10.3567C10.293 11.0467 10.494 11.7997 10.494 12.6157C10.518 12.7957 10.602 12.9487 10.746 13.0747C10.89 13.2007 11.055 13.2637 11.241 13.2637C11.427 13.2637 11.592 13.2007 11.736 13.0747C11.88 12.9487 11.964 12.7957 11.988 12.6157C11.988 11.4397 11.67 10.3597 11.034 9.37567C10.398 8.39167 9.546 7.65367 8.478 7.16167ZM5.994 6.62167C5.586 6.62167 5.211 6.51967 4.869 6.31567C4.527 6.11167 4.254 5.83867 4.05 5.49667C3.846 5.15467 3.744 4.77967 3.744 4.37167C3.744 3.96367 3.846 3.58867 4.05 3.24667C4.254 2.90467 4.527 2.63167 4.869 2.42767C5.211 2.22367 5.586 2.12167 5.994 2.12167C6.402 2.12167 6.777 2.22367 7.119 2.42767C7.461 2.63167 7.734 2.90467 7.938 3.24667C8.142 3.58867 8.244 3.96367 8.244 4.37167C8.244 4.77967 8.142 5.15467 7.938 5.49667C7.734 5.83867 7.461 6.11167 7.119 6.31567C6.777 6.51967 6.402 6.62167 5.994 6.62167ZM13.302 6.85567C13.794 6.30367 14.094 5.66467 14.202 4.93867C14.31 4.21267 14.214 3.51067 13.914 2.83267C13.614 2.15467 13.152 1.61767 12.528 1.22167C11.904 0.825672 11.226 0.627672 10.494 0.627672C10.314 0.651672 10.161 0.735672 10.035 0.879672C9.909 1.02367 9.846 1.18867 9.846 1.37467C9.846 1.56067 9.909 1.72567 10.035 1.86967C10.161 2.01367 10.314 2.09767 10.494 2.12167C10.902 2.12167 11.277 2.22367 11.619 2.42767C11.961 2.63167 12.234 2.90467 12.438 3.24667C12.642 3.58867 12.744 3.96067 12.744 4.36267C12.744 4.76467 12.645 5.13967 12.447 5.48767C12.249 5.83567 11.976 6.11167 11.628 6.31567C11.52 6.37567 11.43 6.46267 11.358 6.57667C11.286 6.69067 11.25 6.81367 11.25 6.94567C11.25 7.07767 11.277 7.20067 11.331 7.31467C11.385 7.42867 11.466 7.52167 11.574 7.59367L11.97 7.84567C12.894 8.27767 13.626 8.92567 14.166 9.78967C14.706 10.6537 14.976 11.5957 14.976 12.6157C15 12.7957 15.084 12.9487 15.228 13.0747C15.372 13.2007 15.537 13.2637 15.723 13.2637C15.909 13.2637 16.074 13.2007 16.218 13.0747C16.362 12.9487 16.446 12.7957 16.47 12.6157C16.47 11.4517 16.188 10.3597 15.624 9.33967C15.06 8.31967 14.286 7.49767 13.302 6.87367V6.85567Z" fill="#506B8E"/>
</svg>
