<svg xmlns="http://www.w3.org/2000/svg" viewBox="0 0 39 49"><defs><style>.cls-1{fill:#153359;fill-rule:evenodd;}</style></defs><title>Asset 1</title><g id="Layer_2" data-name="Layer 2"><g id="Layer_1-2" data-name="Layer 1"><path class="cls-1" d="M9.66,2A84.12,84.12,0,0,1,8.28,14.8C6.86,22.47,5.2,30.47,3.15,38L0,49c2.43-.39,3.84-1.4,6.52-1,3.17.44,5.27,2.52,7.65-2.37,1.17-2.44,2.6-5.08,5.16-6.36,3.91-2,8.67-1,12.14,1.24a9.89,9.89,0,0,1,3.47,4.2c1.46,2.86,1.33,2.08,3.79.25a.24.24,0,0,0,.1-.1l.1-.05s0,0,0,0a.12.12,0,0,1,0-.05c-.27-1.3-1-3.48-1.39-5.07l-1.36-5.11A263.31,263.31,0,0,1,30.72,7.84c-.09-.63-.74-5.57-.66-5.78a6.71,6.71,0,0,1,.66-.46L32.29.34c.17-.15.19-.15.24-.34H7.09A10.08,10.08,0,0,0,9.66,2ZM20,29.07a27.39,27.39,0,0,0,2.23-3.68c1.12-2.39,2.95-6.57,1.51-9.11a4.3,4.3,0,0,0-7.48,0c-1.74,3.31,1.41,9.16,3.42,12.31.05.07.07.12.15.22Z"/></g></g></svg>