<svg xmlns="http://www.w3.org/2000/svg" viewBox="0 0 207.13 49"><defs><style>.cls-1{fill:#153359;}.cls-1,.cls-2{fill-rule:evenodd;}.cls-2{fill:#e83728;}</style></defs><title>Asset 1</title><g id="Layer_2" data-name="Layer 2"><g id="Layer_1-2" data-name="Layer 1"><path class="cls-1" d="M9.66,2A84.12,84.12,0,0,1,8.28,14.8C6.86,22.47,5.2,30.47,3.15,38L0,49c2.43-.39,3.84-1.4,6.52-1,3.17.44,5.27,2.52,7.65-2.37,1.17-2.44,2.6-5.08,5.16-6.36,3.91-2,8.67-1,12.14,1.24a9.89,9.89,0,0,1,3.47,4.2c1.46,2.86,1.33,2.08,3.79.25a.24.24,0,0,0,.1-.1l.1-.05s0,0,0,0a.12.12,0,0,1,0-.05c-.27-1.3-1-3.48-1.39-5.07l-1.36-5.11A263.31,263.31,0,0,1,30.72,7.84c-.09-.63-.74-5.57-.66-5.78a6.71,6.71,0,0,1,.66-.46L32.29.34c.17-.15.19-.15.24-.34H7.09A10.08,10.08,0,0,0,9.66,2ZM20,29.07a27.39,27.39,0,0,0,2.23-3.68c1.12-2.39,2.95-6.57,1.51-9.11a4.3,4.3,0,0,0-7.48,0c-1.74,3.31,1.41,9.16,3.42,12.31.05.07.07.12.15.22Z"/><path class="cls-1" d="M68.3,17.32c-1.22-.61-3.41-3-7.28-.84C55.41,19.74,57.76,31,65.11,29.67c2-.38,2-1.06,3.19-1.82l.07,1.52,3.72.07c.3-1.14.3-16.82.07-18.41H68.37Zm-3.72,1.81c-2,.31-2.95,1.9-2.65,4.32a3.29,3.29,0,0,0,3.87,3C69.74,25.65,69.13,18.22,64.58,19.13Z"/><path class="cls-1" d="M127,17.62l-.07-1.74h-3.79V29.36l3.71.08c.76-2.88-1.51-10,2.2-10.31,2.35-.07,2.5,1.82,2.5,3.94s0,4.25-.08,6.29l4,.08V23.07c0-2,.07-3.94,2.27-3.94,3.79.08,1.74,7.43,2.35,10.31h3.71c.38-2,.23-10.15-.53-11.67-1.21-2.35-5.38-3.33-8.26-.15-.83-.61-1.36-2-3.94-2C128.54,15.57,128.09,16.86,127,17.62Z"/><path class="cls-1" d="M44.12,16.78l.76,3c2.65-.53,6.29-1.89,6.74,1.89-2.35-.3-3.56-.83-6.06-.07a3.92,3.92,0,0,0-2.73,4.32c.23,3.41,4.55,5.38,8.64,2.35l.15,1.21h3.57c.53-2.58.37-10.08-1-11.82C52.23,15.19,47.15,15.19,44.12,16.78Zm7.5,7.2a6.16,6.16,0,0,0-3.56-.3,1.65,1.65,0,0,0-1.13,2.65C47.76,27.55,51.85,27.47,51.62,24Z"/><path class="cls-1" d="M147.49,16.78a7.2,7.2,0,0,0,1,2.88c2.8-.6,6.13-1.66,6.51,2-4.09-.69-9.09-.69-8.79,4.24.38,4.32,6.6,4.93,8.49,2.35.3.38.15.76.46,1.21h3.4c.38-1.21.16-4.85.23-6.36,0-2.2,0-3.95-1.13-5.46C155.83,15.27,150.45,15.12,147.49,16.78Zm7.5,7.13c-1.21-.23-2.12-.68-3.56-.23-2.73.83-1.36,4.4,2,3.11C154.84,26.26,155.07,25.5,155,23.91Z"/><path class="cls-1" d="M98.23,16.63a11.56,11.56,0,0,0,.3,1.67l.38.91c.31.61,0,.15.31.45,2.57-.37,6.14-1.89,6.51,2-4.09-.6-9.17-.75-8.79,4.25a3.89,3.89,0,0,0,3.34,3.71c1.89.46,4.39-.15,5.08-1.36l.53,1.06v.15h3.56c.15-7.2,1.29-13.49-5.69-13.64C101.11,15.65,100.28,16.25,98.23,16.63ZM105.58,24a5.13,5.13,0,0,0-3.41-.3A1.71,1.71,0,0,0,101,26.26C101.94,27.77,106.64,27,105.58,24Z"/><path class="cls-1" d="M84.21,29.9l-1.06,2.65c1.52,1.21,4.62,1.51,6.14.07,1.29-1.28,1.82-3.25,2.58-5.22s1.44-3.79,2.12-5.69c.6-1.74,1.66-3.94,2.12-5.76l-3.79-.07a66.05,66.05,0,0,0-3,8.79c-.75-.76.38.75-.37-.46l-.23-.45c-.61-1.44-2.05-6.82-2.73-7.88H82.09l4.85,12.58C87.85,30.88,86,30.2,84.21,29.9Z"/><path class="cls-2" d="M179.24,17.92c-8,2.88-5,13,1.75,11C188.72,26.49,186.37,15.27,179.24,17.92Zm.16,1a5.31,5.31,0,0,0-3.72,5.45c.08,5.91,9,4.25,9-2A3.73,3.73,0,0,0,179.4,18.91Z"/><path class="cls-1" d="M113.24,15.87l-1.67.08v3.18l1.59.08c.45,6.14-1.67,12.73,7.12,9.78V26c-1.06.08-2,.46-2.88.08-.53-1.06-.37-5.31-.22-6.82l3.1-.08V16l-3.1-.23-.08-3.34-3.86-.07Z"/><path class="cls-1" d="M75.8,17V29.44h3.86V15.88H75.8Z"/><path class="cls-2" d="M194.78,27.17c-.15,1-.38,1.06,0,1.66.76-.07.61.16.91-.75a14.72,14.72,0,0,0,.45-1.52c.23-.91.46-2,.76-2.8.31-1,1.44-4.78,1.29-5.38s.08-.23-.23-.53c-.83.15-.6,0-.91,1.06l-1.21,4.77c-1.82,6.14-8.64,5.53-7.35.53.3-1,1.89-5.53,1.29-6.44-1.06.23-1.14,1.74-1.74,4.17-.38,1.51-1.07,3.41-.61,4.85a3.33,3.33,0,0,0,3.41,2.27C193,29.06,193.49,28.08,194.78,27.17Z"/><path class="cls-2" d="M170.23,17.69c-1.22.38-1.6-.38-1.82,1.06l1.44.38c-.53,3.11-4.7,11.67,2.27,9.63l.23-.91c-2.73-.23-4.09,1.44-2.5-4.78.3-.91.91-3.56,1.21-4.09a20.45,20.45,0,0,1,2.95-.15c1.22-.15.61.15.91-.53-.15-.3.16-.53-1.51-.53a9.39,9.39,0,0,1-2.12,0l.91-3.41-1.07-.08Z"/><path class="cls-2" d="M201.9,20.27c0-1.14.61-1.59.23-2.42-1.14.15-.76-.31-1.44,2.27l-2.2,8.71h1.06c.91-2.42.91-7.27,4.63-9.32,1.74-.91,2.72.23,2.95-1.82C203.57,17.69,203,19.74,201.9,20.27Z"/><path class="cls-1" d="M75.72,14.36h4V11h-4Z"/></g></g></svg>