<svg width="15" height="16" viewBox="0 0 15 16" fill="none" xmlns="http://www.w3.org/2000/svg">
<path d="M12.762 3.12193H8.046L7.812 2.36593C7.656 1.90993 7.38 1.54693 6.984 1.27693C6.588 1.00693 6.15 0.87193 5.67 0.87193H2.25C1.842 0.87193 1.467 0.97393 1.125 1.17793C0.783 1.38193 0.51 1.65493 0.306 1.99693C0.102 2.33893 0 2.71393 0 3.12193V12.8779C0 13.2859 0.102 13.6609 0.306 14.0029C0.51 14.3449 0.783 14.6179 1.125 14.8219C1.467 15.0259 1.842 15.1279 2.25 15.1279H12.762C13.17 15.1279 13.545 15.0259 13.887 14.8219C14.229 14.6179 14.502 14.3449 14.706 14.0029C14.91 13.6609 15.012 13.2859 15.012 12.8779V5.37193C15.012 4.96393 14.91 4.58893 14.706 4.24693C14.502 3.90493 14.229 3.63193 13.887 3.42793C13.545 3.22393 13.17 3.12193 12.762 3.12193ZM13.5 12.8779C13.5 13.0819 13.428 13.2559 13.284 13.3999C13.14 13.5439 12.966 13.6159 12.762 13.6159H2.25C2.046 13.6159 1.872 13.5439 1.728 13.3999C1.584 13.2559 1.512 13.0819 1.512 12.8779V3.12193C1.512 2.91793 1.584 2.74093 1.728 2.59093C1.872 2.44093 2.046 2.36593 2.25 2.36593H5.67C5.838 2.36593 5.988 2.41393 6.12 2.50993C6.252 2.60593 6.342 2.73193 6.39 2.88793L6.786 4.11193C6.834 4.26793 6.927 4.39093 7.065 4.48093C7.203 4.57093 7.35 4.61593 7.506 4.61593H12.762C12.966 4.61593 13.14 4.69093 13.284 4.84093C13.428 4.99093 13.5 5.16793 13.5 5.37193V12.8779Z" fill="#506B8E"/>
</svg>
